<svg width="36" height="36" viewBox="0 0 36 36" fill="none" xmlns="http://www.w3.org/2000/svg">
<path d="M7.875 4.5C6.97989 4.5 6.12145 4.85558 5.48851 5.48851C4.85558 6.12145 4.5 6.97989 4.5 7.875V28.125C4.5 29.0201 4.85558 29.8785 5.48851 30.5115C6.12145 31.1444 6.97989 31.5 7.875 31.5H28.125C29.0201 31.5 29.8785 31.1444 30.5115 30.5115C31.1444 29.8785 31.5 29.0201 31.5 28.125V7.875C31.5 6.97989 31.1444 6.12145 30.5115 5.48851C29.8785 4.85558 29.0201 4.5 28.125 4.5H7.875ZM13.125 12.375C13.125 12.7728 12.967 13.1544 12.6857 13.4357C12.4044 13.717 12.0228 13.875 11.625 13.875C11.2272 13.875 10.8456 13.717 10.5643 13.4357C10.283 13.1544 10.125 12.7728 10.125 12.375C10.125 11.9772 10.283 11.5956 10.5643 11.3143C10.8456 11.033 11.2272 10.875 11.625 10.875C12.0228 10.875 12.4044 11.033 12.6857 11.3143C12.967 11.5956 13.125 11.9772 13.125 12.375ZM15.75 12.375C15.75 12.0766 15.8685 11.7905 16.0795 11.5795C16.2905 11.3685 16.5766 11.25 16.875 11.25H25.125C25.4234 11.25 25.7095 11.3685 25.9205 11.5795C26.1315 11.7905 26.25 12.0766 26.25 12.375C26.25 12.6734 26.1315 12.9595 25.9205 13.1705C25.7095 13.3815 25.4234 13.5 25.125 13.5H16.875C16.5766 13.5 16.2905 13.3815 16.0795 13.1705C15.8685 12.9595 15.75 12.6734 15.75 12.375ZM15.75 18C15.75 17.7016 15.8685 17.4155 16.0795 17.2045C16.2905 16.9935 16.5766 16.875 16.875 16.875H25.125C25.4234 16.875 25.7095 16.9935 25.9205 17.2045C26.1315 17.4155 26.25 17.7016 26.25 18C26.25 18.2984 26.1315 18.5845 25.9205 18.7955C25.7095 19.0065 25.4234 19.125 25.125 19.125H16.875C16.5766 19.125 16.2905 19.0065 16.0795 18.7955C15.8685 18.5845 15.75 18.2984 15.75 18ZM16.875 22.5H25.125C25.4234 22.5 25.7095 22.6185 25.9205 22.8295C26.1315 23.0405 26.25 23.3266 26.25 23.625C26.25 23.9234 26.1315 24.2095 25.9205 24.4205C25.7095 24.6315 25.4234 24.75 25.125 24.75H16.875C16.5766 24.75 16.2905 24.6315 16.0795 24.4205C15.8685 24.2095 15.75 23.9234 15.75 23.625C15.75 23.3266 15.8685 23.0405 16.0795 22.8295C16.2905 22.6185 16.5766 22.5 16.875 22.5ZM11.625 19.5C11.2272 19.5 10.8456 19.342 10.5643 19.0607C10.283 18.7794 10.125 18.3978 10.125 18C10.125 17.6022 10.283 17.2206 10.5643 16.9393C10.8456 16.658 11.2272 16.5 11.625 16.5C12.0228 16.5 12.4044 16.658 12.6857 16.9393C12.967 17.2206 13.125 17.6022 13.125 18C13.125 18.3978 12.967 18.7794 12.6857 19.0607C12.4044 19.342 12.0228 19.5 11.625 19.5ZM13.125 23.625C13.125 24.0228 12.967 24.4044 12.6857 24.6857C12.4044 24.967 12.0228 25.125 11.625 25.125C11.2272 25.125 10.8456 24.967 10.5643 24.6857C10.283 24.4044 10.125 24.0228 10.125 23.625C10.125 23.2272 10.283 22.8456 10.5643 22.5643C10.8456 22.283 11.2272 22.125 11.625 22.125C12.0228 22.125 12.4044 22.283 12.6857 22.5643C12.967 22.8456 13.125 23.2272 13.125 23.625Z" fill="#D0CBF8"/>
</svg>
