<svg width="32" height="30" viewBox="0 0 32 30" fill="none" xmlns="http://www.w3.org/2000/svg">
<path d="M31.4629 13.5669L26.6131 8.71719V3.1149C26.6131 2.10193 25.7922 1.281 24.7778 1.281C23.7656 1.281 22.9448 2.10193 22.9448 3.1149V5.04893L19.3338 1.43777C17.5484 -0.34659 14.4443 -0.343425 12.6631 1.441L0.536877 13.5669C-0.178959 14.2842 -0.178959 15.4448 0.536877 16.1609C1.25304 16.878 2.41587 16.878 3.13177 16.1609L15.2568 4.03466C15.6518 3.64173 16.348 3.64173 16.7409 4.0335L28.868 16.1609C29.2276 16.5195 29.6965 16.6978 30.1652 16.6978C30.6348 16.6978 31.1044 16.5193 31.4629 16.1609C32.179 15.4448 32.179 14.2843 31.4629 13.5669Z" fill="#D0CBF8"/>
<path d="M16.6372 7.5158C16.2849 7.1637 15.7145 7.1637 15.3632 7.5158L4.69697 18.1789C4.52858 18.3472 4.43311 18.577 4.43311 18.8169V26.5941C4.43311 28.4191 5.91284 29.8988 7.73776 29.8988H13.0186V21.7205H18.9806V29.8988H24.2616C26.0864 29.8988 27.5662 28.4191 27.5662 26.5942V18.8169C27.5662 18.577 27.4715 18.3472 27.3023 18.1789L16.6372 7.5158Z" fill="#D0CBF8"/>
</svg>
