<svg width="32" height="30" viewBox="0 0 32 30" fill="none" xmlns="http://www.w3.org/2000/svg">
<path d="M11.2245 14C14.5625 14 17.2684 10.866 17.2684 7.00001C17.2684 3.13401 14.5625 0 11.2245 0C7.88659 0 5.18066 3.13401 5.18066 7.00001C5.18066 10.866 7.88659 14 11.2245 14Z" fill="#D0CBF8"/>
<path d="M23.8518 17.375C26.534 17.375 28.7084 14.8566 28.7084 11.75C28.7084 8.64343 26.534 6.12504 23.8518 6.12504C21.1695 6.12504 18.9951 8.64343 18.9951 11.75C18.9951 14.8566 21.1695 17.375 23.8518 17.375Z" fill="#D0CBF8"/>
<path d="M11.2243 16C5.03538 16 0 21.832 0 29C0 29.552 0.386832 30 0.863432 30H21.5852C22.0618 30 22.4486 29.552 22.4486 29C22.4486 21.832 17.4132 16 11.2243 16Z" fill="#D0CBF8"/>
<path d="M23.4698 19.0222C22.8708 19.0222 22.2812 19.1166 21.7012 19.2593C23.4016 21.973 24.4177 25.2993 24.4177 28.9022C24.4177 29.2886 24.3494 29.6552 24.2432 30H31.0524C31.5756 30 32.0003 29.5082 32.0003 28.9022C32.0003 23.455 28.1729 19.0222 23.4698 19.0222Z" fill="#D0CBF8"/>
</svg>
