<svg width="32" height="32" viewBox="0 0 32 32" fill="none" xmlns="http://www.w3.org/2000/svg">
<g clip-path="url(#clip0)">
<path d="M28.3333 14.6667H19.6667C17.644 14.6667 16 16.3107 16 18.3333V28.3333C16 30.356 17.644 32 19.6667 32H28.3333C30.356 32 32 30.356 32 28.3333V18.3333C32 16.3107 30.356 14.6667 28.3333 14.6667ZM27 28.3333H21C20.448 28.3333 20 27.8853 20 27.3333C20 26.7813 20.448 26.3333 21 26.3333H27C27.552 26.3333 28 26.7813 28 27.3333C28 27.8853 27.552 28.3333 27 28.3333ZM27 24.3333H21C20.448 24.3333 20 23.8853 20 23.3333C20 22.7813 20.448 22.3333 21 22.3333H27C27.552 22.3333 28 22.7813 28 23.3333C28 23.8853 27.552 24.3333 27 24.3333ZM27 20.3333H21C20.448 20.3333 20 19.8853 20 19.3333C20 18.7813 20.448 18.3333 21 18.3333H27C27.552 18.3333 28 18.7813 28 19.3333C28 19.8853 27.552 20.3333 27 20.3333Z" fill="#D0CBF8"/>
<path d="M15.6665 0H8.33317C7.4145 0 6.6665 0.748 6.6665 1.66667V5C6.6665 5.91867 7.4145 6.66667 8.33317 6.66667H15.6665C16.5852 6.66667 17.3332 5.91867 17.3332 5V1.66667C17.3332 0.748 16.5852 0 15.6665 0Z" fill="#D0CBF8"/>
<path d="M14 18.3334C14 15.2094 16.5427 12.6667 19.6667 12.6667H24V6.33337C24 4.3107 22.356 2.6667 20.3333 2.6667H19.3333V5.00004C19.3333 7.0227 17.6893 8.6667 15.6667 8.6667H8.33333C6.31067 8.6667 4.66667 7.0227 4.66667 5.00004V2.6667H3.66667C1.644 2.6667 0 4.3107 0 6.33337V23C0 25.0227 1.644 26.6667 3.66667 26.6667H14V18.3334Z" fill="#D0CBF8"/>
</g>
<defs>
<clipPath id="clip0">
<rect width="32" height="32" fill="white"/>
</clipPath>
</defs>
</svg>
