<svg width="31" height="30" viewBox="0 0 31 30" fill="none" xmlns="http://www.w3.org/2000/svg">
<path d="M30.5702 12.7199L27.2202 11.7199C26.9886 10.9113 26.6701 10.13 26.2702 9.38994L27.9102 6.31994C27.9718 6.20406 27.9943 6.07142 27.9745 5.94172C27.9547 5.81202 27.8935 5.69216 27.8002 5.59994L25.4102 3.19994C25.318 3.10661 25.1981 3.0455 25.0684 3.02568C24.9387 3.00587 24.8061 3.0284 24.6902 3.08994L21.6402 4.71994C20.8928 4.3006 20.1014 3.96523 19.2802 3.71994L18.2802 0.40994C18.2379 0.287956 18.158 0.182538 18.052 0.108861C17.946 0.0351842 17.8193 -0.00295287 17.6902 -6.04543e-05H14.3102C14.1804 0.000544119 14.0541 0.0425741 13.9498 0.119913C13.8454 0.197251 13.7685 0.305863 13.7302 0.42994L12.7302 3.72994C11.9022 3.97392 11.104 4.30932 10.3502 4.72994L7.35021 3.10994C7.23433 3.0484 7.1017 3.02587 6.972 3.04568C6.84229 3.0655 6.72244 3.12661 6.63021 3.21994L4.20021 5.58994C4.10688 5.68216 4.04578 5.80202 4.02596 5.93172C4.00614 6.06142 4.02868 6.19406 4.09021 6.30994L5.71021 9.30994C5.29027 10.0605 4.95489 10.8554 4.71021 11.6799L1.40021 12.6799C1.27614 12.7183 1.16753 12.7952 1.09019 12.8995C1.01285 13.0038 0.970819 13.1301 0.970215 13.2599V16.6399C0.970819 16.7698 1.01285 16.8961 1.09019 17.0004C1.16753 17.1047 1.27614 17.1816 1.40021 17.2199L4.73021 18.2199C4.97756 19.0308 5.31289 19.8121 5.73022 20.5499L4.09021 23.6899C4.02868 23.8058 4.00614 23.9385 4.02596 24.0682C4.04578 24.1979 4.10688 24.3177 4.20021 24.4099L6.59021 26.7999C6.68244 26.8933 6.80229 26.9544 6.932 26.9742C7.0617 26.994 7.19433 26.9715 7.31021 26.9099L10.4002 25.2599C11.1312 25.6544 11.9022 25.9695 12.7002 26.1999L13.7002 29.5699C13.7385 29.694 13.8154 29.8026 13.9198 29.88C14.0241 29.9573 14.1504 29.9993 14.2802 29.9999H17.6602C17.7901 29.9993 17.9163 29.9573 18.0207 29.88C18.125 29.8026 18.2019 29.694 18.2402 29.5699L19.2402 26.1899C20.0314 25.9583 20.7957 25.6432 21.5202 25.2499L24.6302 26.9099C24.7461 26.9715 24.8787 26.994 25.0084 26.9742C25.1381 26.9544 25.258 26.8933 25.3502 26.7999L27.7402 24.4099C27.8335 24.3177 27.8947 24.1979 27.9145 24.0682C27.9343 23.9385 27.9118 23.8058 27.8502 23.6899L26.1902 20.5899C26.5876 19.8626 26.906 19.0949 27.1402 18.2999L30.5102 17.2999C30.6343 17.2616 30.7429 17.1847 30.8202 17.0804C30.8976 16.9761 30.9396 16.8498 30.9402 16.7199V13.3099C30.9461 13.1856 30.9138 13.0624 30.8477 12.9569C30.7815 12.8515 30.6847 12.7688 30.5702 12.7199ZM16.0002 20.4999C14.9124 20.4999 13.849 20.1774 12.9446 19.573C12.0401 18.9687 11.3352 18.1097 10.9189 17.1047C10.5026 16.0997 10.3937 14.9938 10.6059 13.9269C10.8181 12.86 11.3419 11.88 12.1111 11.1109C12.8803 10.3417 13.8603 9.81784 14.9272 9.60562C15.9941 9.3934 17.1 9.50232 18.105 9.9186C19.11 10.3349 19.969 11.0398 20.5733 11.9443C21.1776 12.8488 21.5002 13.9121 21.5002 14.9999C21.5002 16.4586 20.9208 17.8576 19.8893 18.889C18.8579 19.9205 17.4589 20.4999 16.0002 20.4999Z" fill="#D0CBF8"/>
</svg>
