<svg width="32" height="32" viewBox="0 0 32 32" fill="none" xmlns="http://www.w3.org/2000/svg">
<g clip-path="url(#clip0)">
<path d="M9.3335 16.3333V24H1.3335V16.3333C1.3335 15.4133 2.08016 14.6667 3.00016 14.6667H7.66683C8.58683 14.6667 9.3335 15.4133 9.3335 16.3333Z" fill="white"/>
<path d="M20 11V24H12V11C12 10.08 12.7467 9.33334 13.6667 9.33334H18.3333C19.2533 9.33334 20 10.08 20 11Z" fill="white"/>
<path d="M30.6665 5.66667V24H22.6665V5.66667C22.6665 4.74667 23.4132 4 24.3332 4H28.9998C29.9198 4 30.6665 4.74667 30.6665 5.66667Z" fill="white"/>
<path d="M31 28H1C0.448 28 0 27.552 0 27C0 26.448 0.448 26 1 26H31C31.552 26 32 26.448 32 27C32 27.552 31.552 28 31 28Z" fill="white"/>
</g>
<defs>
<clipPath id="clip0">
<rect width="32" height="32" fill="white"/>
</clipPath>
</defs>
</svg>
